<svg width="190" height="100" viewBox="0 0 190 100" fill="none" xmlns="http://www.w3.org/2000/svg">
<path d="M80.7767 87.3164L77.458 97.0134H79.4078L80.3453 94.1837H83.0418L84.0042 97.0134H85.9955L82.6767 87.3164H80.7767ZM82.5772 92.5786H80.8348L81.5566 90.4439C81.6064 90.295 81.6562 90.1543 81.6977 90.0054C81.7475 90.1543 81.789 90.3033 81.847 90.4522L82.5772 92.5786Z" fill="white"/>
<path d="M89.2813 92.602C88.3852 92.2462 88.2856 92.0807 88.2856 91.8242C88.2856 91.5015 88.5594 91.2947 88.9992 91.2947C89.5302 91.2947 89.9367 91.5015 90.1358 91.6256L90.5175 91.8656L91.0236 90.3266L90.7996 90.1777C90.3598 89.8881 89.6961 89.7227 89.0241 89.7227C87.5223 89.7227 86.4354 90.6659 86.4354 91.9731C86.4354 93.1729 87.4974 93.8099 88.3935 94.1326C89.2813 94.4636 89.3559 94.6952 89.3559 94.9766C89.3559 95.5061 88.7917 95.5888 88.4682 95.5888C87.9538 95.5888 87.3979 95.3654 87.0826 95.1834L86.7009 94.96L86.2031 96.532L86.4437 96.6727C86.9913 96.9954 87.7132 97.1774 88.4433 97.1774C90.0943 97.1774 91.2061 96.2507 91.2061 94.8773C91.2061 93.479 90.1026 92.9081 89.2813 92.602Z" fill="white"/>
<path d="M94.1344 88.1836L92.2759 88.7462V89.8549H91.2803V91.4518H92.2842V94.6207C92.2842 95.506 92.4667 96.1348 92.8318 96.5567C93.1885 96.9539 93.7361 97.169 94.3584 97.169C94.9226 97.169 95.3291 97.0532 95.52 96.987L95.7689 96.896L95.6693 95.2908L95.2462 95.4232C95.1134 95.4563 94.9724 95.4894 94.6654 95.4894C94.4414 95.4894 94.1344 95.4894 94.1344 94.5876V91.4518H95.8187V89.8549H94.1427L94.1344 88.1836Z" fill="white"/>
<path d="M100.34 89.7888L100 89.7475C99.9007 89.7309 99.8011 89.7227 99.6683 89.7227C99.0793 89.7227 98.54 89.9626 98.1251 90.3846L98.1085 89.855H96.3662L96.3911 90.2274C96.4243 90.7734 96.4492 91.4105 96.4492 92.2214V97.0202H98.3326V93.2225C98.3326 93.0405 98.3492 92.8667 98.3657 92.7343C98.5068 91.9897 98.9714 91.5264 99.5937 91.5264C99.743 91.5264 99.8343 91.5264 99.9173 91.5429L100.34 91.6339V89.7888Z" fill="white"/>
<path d="M103.776 89.7227C101.677 89.7227 100.208 91.2699 100.208 93.4955C100.208 95.655 101.627 97.1691 103.659 97.1691C105.385 97.1691 107.235 95.986 107.235 93.388C107.252 91.2285 105.825 89.7227 103.776 89.7227ZM105.344 93.4211C105.344 94.6704 104.663 95.5805 103.734 95.5805C102.805 95.5805 102.133 94.6787 102.133 93.4542C102.133 92.6599 102.481 91.3112 103.767 91.3112C105.012 91.303 105.344 92.6847 105.344 93.4211Z" fill="white"/>
<path d="M113.425 88.0857C112.803 87.5313 111.874 87.25 110.662 87.25C109.849 87.25 109.078 87.3079 108.372 87.432L108.082 87.4817V97.0214H109.949V93.4719C110.14 93.4885 110.339 93.4968 110.53 93.4968C111.791 93.4968 112.861 93.1079 113.541 92.4046C114.072 91.8668 114.338 91.1387 114.338 90.2369C114.33 89.3681 114.014 88.6069 113.425 88.0857ZM112.463 90.2948C112.463 91.6517 111.268 91.8503 110.554 91.8503C110.314 91.8503 110.115 91.842 109.941 91.8172V88.9048C110.123 88.8799 110.372 88.8717 110.687 88.8717C111.5 88.8799 112.463 89.1282 112.463 90.2948Z" fill="white"/>
<path d="M120.063 95.1172V92.7012C120.063 90.7734 119.059 89.7227 117.25 89.7227C116.412 89.7227 115.533 89.9543 114.919 90.3349L114.686 90.4839L115.192 91.9731L115.582 91.7084C115.972 91.4436 116.537 91.2864 117.092 91.2864C117.466 91.2781 117.748 91.3692 117.93 91.5512C118.08 91.7001 118.171 91.9235 118.204 92.2048C116.736 92.2462 115.657 92.602 115.01 93.2473C114.554 93.6941 114.321 94.2733 114.321 94.96C114.321 96.0522 115.118 97.1691 116.653 97.1691C117.308 97.1691 117.922 96.9623 118.403 96.59L118.453 97.0119H120.237L120.179 96.6065C120.088 96.2176 120.063 95.7129 120.063 95.1172ZM116.926 95.5971C116.644 95.5971 116.18 95.4978 116.18 94.8276C116.18 94.5711 116.254 94.3726 116.42 94.2071C116.644 93.992 117.126 93.7438 118.221 93.7189V94.4884C118.221 94.5463 118.213 94.6456 118.188 94.7532C118.047 95.142 117.64 95.5971 116.926 95.5971Z" fill="white"/>
<path d="M125.24 89.8559L123.879 93.8853C123.846 93.9846 123.813 94.0921 123.78 94.1914C123.746 94.0921 123.713 93.9929 123.672 93.9018L122.187 89.8559H120.129L122.701 96.2847L122.709 96.3013C122.751 96.384 122.767 96.4337 122.767 96.4502C122.751 96.4833 122.726 96.5495 122.709 96.5909C122.485 97.0707 122.153 97.5093 121.821 97.774L121.813 97.7823C121.44 98.0967 121.05 98.2456 120.901 98.287L120.569 98.3946L121.05 99.9997L121.357 99.9418C121.548 99.9087 122.211 99.7515 122.975 99.1144C123.887 98.3118 124.493 97.0211 125.29 94.9278L127.239 89.8477L125.24 89.8559Z" fill="white"/>
<path d="M84.3355 89.9878C85.5469 88.755 87.6045 88.0186 89.8363 88.0186C90.7075 88.0186 91.5538 88.1262 92.3503 88.3496L92.4166 88.3661L93.852 87.9359L93.2048 87.6959C91.9852 87.2326 90.5747 86.9844 89.1311 86.9844C87.032 86.9844 85.0822 87.4891 83.6137 88.4075L83.4561 88.5068L84.0617 90.2691L84.3355 89.9878Z" fill="#FF0000"/>
<path d="M65.9403 92.6093H63.3433L63.4392 91.944H65.5885C65.9808 91.944 66.3497 91.8822 66.6951 91.7585C67.0448 91.6349 67.339 91.443 67.5778 91.1828C67.8209 90.9184 67.9744 90.5773 68.0384 90.1594C68.1066 89.7415 68.0619 89.4088 67.9041 89.1615C67.7506 88.9142 67.5224 88.7372 67.2196 88.6306C66.9211 88.5197 66.5864 88.46 66.2154 88.4515H64.2708L62.774 97.0869H62L63.6119 87.7734H66.2282C66.6077 87.782 66.9659 87.8331 67.3028 87.927C67.6397 88.0165 67.9297 88.1572 68.1727 88.3491C68.4158 88.541 68.597 88.7884 68.7164 89.0911C68.8358 89.3896 68.87 89.7521 68.8188 90.1786C68.7676 90.6135 68.6312 90.9803 68.4094 91.2788C68.1877 91.573 67.9062 91.8097 67.5651 91.9888C67.2282 92.1636 66.8614 92.2894 66.4648 92.3662L65.9403 92.6093ZM65.1088 97.0869H62.3006L62.806 96.4153H65.1215C65.5395 96.411 65.9254 96.3342 66.2793 96.185C66.6333 96.0357 66.9297 95.8161 67.1685 95.5261C67.4115 95.2319 67.5672 94.8737 67.6354 94.4515C67.6951 94.0634 67.6589 93.7351 67.5267 93.4664C67.3945 93.1935 67.1898 92.9867 66.9126 92.846C66.6354 92.701 66.3113 92.6221 65.9403 92.6093H64.3092L64.4307 91.944H66.6311L66.7271 92.1871C67.1024 92.2468 67.4222 92.3833 67.6866 92.5965C67.9552 92.8097 68.1514 93.0762 68.2751 93.3961C68.3987 93.7116 68.4393 94.0592 68.3966 94.4387C68.3326 95.0144 68.1429 95.4984 67.8273 95.8907C67.516 96.2831 67.1216 96.5816 66.6439 96.7863C66.1706 96.9867 65.6589 97.0869 65.1088 97.0869Z" fill="white"/>
<path d="M71.7229 96.3641L74.8892 90.1722H75.7207L71.5054 98.1999C71.3945 98.4174 71.2708 98.6264 71.1344 98.8268C70.9979 99.0315 70.8444 99.2127 70.6738 99.3705C70.5032 99.5326 70.3092 99.6584 70.0917 99.7479C69.8785 99.8417 69.6376 99.8908 69.3689 99.895C69.2708 99.8908 69.1706 99.8801 69.0683 99.863C68.9659 99.8503 68.8678 99.8311 68.774 99.8055L68.8252 99.1594C68.8892 99.1679 68.9531 99.1765 69.0171 99.185C69.0768 99.1978 69.1365 99.2042 69.1962 99.2042C69.4819 99.2127 69.7292 99.1594 69.9382 99.0443C70.1472 98.9334 70.3284 98.782 70.4819 98.5901C70.6397 98.3982 70.7783 98.185 70.8977 97.9505L71.7229 96.3641ZM70.8401 90.1594L71.9659 96.1402L72.0299 96.927L71.4542 97.234L70.0533 90.1594H70.8401Z" fill="white"/>
<path d="M54.1918 0H35.6201C27.4143 0.387988 20.7067 3.6931 18.7699 10.5087C17.76 14.0632 17.2042 17.967 16.4145 21.6517C12.3999 40.3873 8.84013 59.6386 5 78H149.585C160.763 78 168.438 75.638 170.512 66.7666C171.476 62.6455 172.399 57.9773 173.321 53.4495C176.914 35.7955 180.511 18.1426 184.192 0H54.1918Z" fill="#B82126"/>
<path d="M128.79 46.6001C126.785 48.5631 121.156 49.1208 121.732 44.4284C122.21 40.5311 126.453 39.703 131.052 40.2659C130.71 42.3976 130.318 45.1044 128.79 46.6001ZM122.456 31.398C122.264 32.4731 121.97 33.446 121.732 34.4745C124.028 33.8989 131.178 32.1337 131.867 35.1983C132.095 36.2165 131.701 37.2983 131.414 38.0941C124.949 37.4817 119.679 38.5558 118.293 43.1614C117.365 46.2463 118.397 49.282 120.375 50.1295C124.183 51.7608 128.815 49.892 130.419 47.3243C130.252 48.2132 130.094 49.1109 130.147 50.2198H133.495C133.531 47.0133 133.997 44.4178 134.491 41.5325C134.911 39.0755 135.702 36.643 135.576 34.4745C135.289 29.508 127.061 31.2648 122.456 31.398ZM156.027 48.1384C153.408 48.1946 152.105 46.5734 152.045 43.8855C151.941 39.1781 154.006 33.9481 158.199 33.4791C160.151 33.2609 161.564 33.7148 162.995 34.2032C161.682 39.4908 162.156 48.007 156.027 48.1384ZM164.714 23.2539C164.381 26.1779 163.935 28.9898 163.357 31.6692C153.812 28.6483 147.959 35.6705 148.064 44.3377C148.085 46.0141 148.373 47.6763 149.422 48.8622C151.228 50.9056 156.402 51.3944 159.013 49.677C159.519 49.3446 160.036 48.7395 160.371 48.3197C160.622 48.0034 161.022 47.1763 161.094 47.4142C160.957 48.333 160.752 49.1836 160.733 50.2198H164.262C164.942 40.4633 167.045 32.1299 168.605 23.2539H164.714ZM65.0855 46.6908C63.0037 48.8955 57.8859 48.8618 57.4846 45.1522C57.3096 43.5381 57.9112 41.8456 58.2084 40.1756C58.5092 38.4852 58.7256 36.8633 59.0225 35.3792C61.073 32.8754 67.0984 32.5733 67.7098 36.7369C68.2403 40.3516 66.8096 44.8648 65.0855 46.6908ZM68.1623 31.398C64.8691 30.1609 60.8552 31.6376 59.1152 33.0423C59.1212 33.1042 59.0738 33.1126 59.0225 33.1172C59.0524 33.0922 59.0843 33.0673 59.1152 33.0423C59.1149 33.0371 59.1146 33.0325 59.1131 33.0269C59.1427 32.4225 59.3552 32.002 59.3847 31.398H56.0367C54.6414 40.6805 52.9869 49.7033 51.2407 58.6351H55.1316C55.6948 55.1563 56.0669 51.4868 56.8511 48.229C57.7397 51.6554 63.542 51.0005 65.9902 49.677C71.0424 46.9452 74.9389 33.9436 68.1623 31.398ZM86.6219 37.9132H77.4827C77.7719 35.8121 79.6622 33.5026 82.6403 33.3888C85.4434 33.2816 87.4504 34.4179 86.6219 37.9132ZM82.9119 31.0361C80.1004 31.2525 77.7238 32.0617 76.0348 33.841C73.9632 36.0236 72.2855 40.8488 72.777 45.2428C73.4783 51.5117 81.2837 51.2869 87.527 49.7673C87.6331 48.6672 87.8994 47.7266 88.0698 46.6908C85.4979 47.6531 81.0325 48.9964 78.3875 47.3243C76.3904 46.0615 76.3788 42.8638 77.0302 40.0849C81.2261 39.9514 85.5871 39.9771 89.789 40.0849C90.0557 38.1152 90.8185 35.9677 90.1509 34.0223C89.2704 31.4539 86.1191 30.7891 82.9119 31.0361ZM48.707 31.398C48.6016 31.4131 48.6086 31.541 48.6164 31.6692C47.7591 38.0811 46.5989 44.1905 45.3589 50.2198H49.2499C50.1848 43.7647 51.2558 37.4459 52.5979 31.398H48.707ZM150.236 31.4883C146.797 29.7691 143.934 32.6541 142.816 34.3838C143.134 33.4963 143.153 32.308 143.449 31.398H140.01C139.084 37.8608 137.966 44.1329 136.662 50.2198H140.644C140.669 47.7252 141.159 45.8798 141.549 43.433C142.381 38.2094 143.602 32.4805 149.693 34.2032C149.895 33.3196 149.979 32.3175 150.236 31.4883ZM106.529 45.7857C106.171 44.8592 106.078 43.329 106.167 42.166C106.369 39.5512 107.321 36.3679 108.792 34.927C110.821 32.938 114.827 33.2672 118.022 34.3838C118.121 33.3069 118.337 32.3467 118.474 31.3077C113.234 30.4518 108.261 30.9841 105.625 33.7507C103.044 36.4589 101.352 42.6836 102.548 46.6001C103.948 51.1832 110.225 51.4323 115.307 49.677C115.532 48.7557 115.651 47.7287 115.85 46.7811C113.073 48.2241 107.764 48.9739 106.529 45.7857ZM104.358 31.398C100.908 30.0045 98.1955 32.3593 96.938 34.5651C97.223 33.5838 97.3407 32.4345 97.5712 31.398H94.1325C93.292 37.9174 92.0528 44.038 90.8751 50.2198H94.7663C95.3116 46.5502 95.547 41.6042 96.7568 38.0941C97.7237 35.2893 100.254 32.8997 103.905 34.2032C103.957 33.1685 104.253 32.3786 104.358 31.398ZM41.649 23.7968C41.0931 27.4034 40.467 30.9398 39.8391 34.4745C35.808 34.517 31.6922 34.6737 27.8041 34.3838C28.5385 30.9261 29.0652 27.2601 29.7946 23.7968H25.4515C23.8964 32.6183 22.4821 41.5799 20.7461 50.2198H25.1799C25.8755 45.7874 26.5259 41.3101 27.4419 37.0987C31.2225 37.0056 35.7536 36.8433 39.3866 37.1894C38.6375 41.568 37.7324 45.7902 37.0339 50.2198H41.468C42.8924 41.2683 44.3938 32.3934 46.1734 23.7968H41.649ZM52.6886 27.7783C53.4644 27.2443 54.4633 24.8101 53.3221 23.7968C52.9605 23.476 52.3555 23.3829 51.5123 23.5255C50.7298 23.6576 50.2797 23.9232 49.974 24.3396C49.4821 25.0093 49.0317 27.0282 49.7927 27.7783C50.5341 28.5088 52.1949 28.1181 52.6886 27.7783Z" fill="white"/>
</svg>
