<svg width="190" height="100" viewBox="0 0 190 100" fill="none" xmlns="http://www.w3.org/2000/svg">
<path fill-rule="evenodd" clip-rule="evenodd" d="M39.1035 19H57.0877V36.9842H39.1035V19ZM42.2073 22.0986H53.9892V33.8804H42.2073V22.0986ZM45.018 24.9145H51.1732V31.0697H45.018V24.9145ZM9.41081 28.7353H19.1357C27.1176 28.7353 33.6497 35.2674 33.6497 43.2493C33.6497 51.2312 27.1176 57.7581 19.1357 57.7581H9.41081V68.9276H0V35.8065H9.41081V28.7353ZM9.41081 35.8432V50.6503H17.4451C21.5172 50.6503 24.846 47.3162 24.846 43.2493C24.846 39.1772 21.5172 35.8432 17.4451 35.8432H9.41081ZM39.1035 43.1656H48.5091V68.9276H39.1035V43.1656ZM98.5832 28.7353H108.308C116.29 28.7353 122.822 35.2674 122.822 43.2493C122.822 51.2312 116.29 57.7581 108.308 57.7581H98.5832V68.9276H89.1724V35.8065H98.5832V28.7353ZM98.5832 35.8432V50.6503H106.617C110.69 50.6503 114.018 47.3162 114.018 43.2493C114.018 39.1772 110.69 35.8432 106.617 35.8432H98.5832ZM70.3717 37.6803C75.7209 37.6803 80.463 40.2083 83.4202 44.1129L78.3118 49.2214C76.8986 46.552 74.224 44.7515 71.1568 44.7515C66.6189 44.7515 62.9394 48.6927 62.9394 53.5552C62.9394 58.4124 66.6189 62.3536 71.1568 62.3536C74.224 62.3536 76.8986 60.5531 78.3118 57.8837L83.4202 62.9869C80.463 66.8967 75.7209 69.4248 70.3717 69.4248C61.4058 69.4248 54.141 62.317 54.141 53.5552C54.141 44.7881 61.4058 37.6803 70.3717 37.6803ZM163.826 80.8769H173.058L189.964 38.0729H180.732L172.975 57.7058L165.223 38.0729H155.99L168.358 69.3934L163.826 80.8769ZM153.755 68.2838H145.219V65.9075C135.075 72.5286 126.585 68.1948 125.565 61.6627C124.424 54.3612 128.841 49.0644 146.061 50.5194C146.093 43.9559 136.326 43.0975 129.689 47.7244L126.612 41.5692C138.786 35.0738 153.703 37.0575 153.755 47.8605V68.2838ZM146.339 55.4185H139.063C131.783 55.4185 133.379 64.8869 140.325 63.3899C143.9 62.6205 146.114 60.2495 146.339 55.4185Z" fill="#21A73F"/>
</svg>
