<svg width="190" height="100" viewBox="0 0 190 100" fill="none" xmlns="http://www.w3.org/2000/svg">
<g clip-path="url(#clip0_1408_16701)">
<path d="M78.1748 78.8742V40.258C78.1748 33.1525 83.9347 27.3926 91.0399 27.3926L102.442 27.4098C109.526 27.4238 115.262 33.1711 115.262 40.256V48.4756C115.262 55.5811 109.502 61.341 102.397 61.341H86.2856" stroke="#939598" stroke-width="2.97639" stroke-miterlimit="10" stroke-linecap="round" stroke-linejoin="round"/>
<path d="M118.448 27.3867H123.394C126.31 27.3867 128.674 29.7505 128.674 32.6666V61.513" stroke="#939598" stroke-width="2.97639" stroke-miterlimit="10" stroke-linecap="round" stroke-linejoin="round"/>
<path d="M127.614 22.9182L125.371 20.6751C124.814 20.1186 124.814 19.2162 125.371 18.6597L127.612 16.418C128.17 15.8607 129.073 15.8607 129.63 16.418L131.872 18.6597C132.429 19.2162 132.429 20.1186 131.872 20.6751L129.629 22.9182C129.072 23.4747 128.17 23.4747 127.614 22.9182Z" fill="#32BCAD"/>
<path d="M138.162 27.3613H143.067C145.59 27.3613 148.01 28.3638 149.794 30.1477L161.267 41.6202C162.753 43.1064 165.162 43.1064 166.648 41.6202L178.079 30.1897C179.863 28.4058 182.283 27.4033 184.806 27.4033H188.794" stroke="#939598" stroke-width="2.97639" stroke-miterlimit="10" stroke-linecap="round" stroke-linejoin="round"/>
<path d="M138.162 61.2603H143.067C145.59 61.2603 148.01 60.2578 149.794 58.4739L161.267 47.0014C162.753 45.5152 165.162 45.5152 166.648 47.0014L178.079 58.4319C179.863 60.2158 182.283 61.2183 184.806 61.2183H188.794" stroke="#939598" stroke-width="2.97639" stroke-miterlimit="10" stroke-linecap="round" stroke-linejoin="round"/>
<path d="M48.9321 68.5901C46.4705 68.5901 44.1551 67.6316 42.4143 65.8917L33.0034 56.4805C32.3426 55.818 31.191 55.82 30.5305 56.4805L21.0852 65.9261C19.3444 67.666 17.0291 68.6245 14.5675 68.6245H12.7129L24.6322 80.5436C28.3545 84.2659 34.3899 84.2659 38.1125 80.5436L50.0656 68.5901H48.9321Z" fill="#32BCAD"/>
<path d="M14.567 35.3025C17.0286 35.3025 19.3439 36.2609 21.0847 38.0009L30.53 47.4479C31.2103 48.1284 32.321 48.131 33.0029 47.4471L42.4138 38.0353C44.1546 36.2954 46.4699 35.3369 48.9315 35.3369H50.065L38.1122 23.3837C34.3893 19.6611 28.354 19.6611 24.6317 23.3837L12.7129 35.3025L14.567 35.3025Z" fill="#32BCAD"/>
<path d="M59.9526 45.2228L52.7293 37.9995C52.5703 38.0632 52.398 38.1029 52.2162 38.1029H48.932C47.2341 38.1029 45.5719 38.7916 44.3721 39.9923L34.9615 49.4032C34.0808 50.2839 32.9236 50.7245 31.7675 50.7245C30.6103 50.7245 29.4539 50.2839 28.5735 49.404L19.1273 39.9579C17.9275 38.7569 16.2654 38.0685 14.5675 38.0685H10.5292C10.3569 38.0685 10.196 38.0279 10.044 37.9707L2.79194 45.2228C-0.930647 48.9454 -0.930647 54.9804 2.79194 58.703L10.0437 65.9548C10.1959 65.8976 10.3569 65.857 10.5292 65.857H14.5675C16.2654 65.857 17.9275 65.1686 19.1273 63.9679L28.5726 54.5226C30.2799 52.8168 33.256 52.8162 34.9615 54.5234L44.3721 63.9335C45.5719 65.1341 47.2341 65.8228 48.932 65.8228H52.2162C52.398 65.8228 52.5703 65.8626 52.7293 65.9263L59.9526 58.703C63.6749 54.9804 63.6749 48.9453 59.9526 45.2227" fill="#32BCAD"/>
<path d="M87.9798 75.5906C87.4467 75.5906 86.8263 75.7189 86.2125 75.8604V78.2135C86.6377 78.3688 87.1231 78.4435 87.5885 78.4435C88.7686 78.4435 89.3282 78.0455 89.3282 77.0061C89.3282 76.029 88.8698 75.5906 87.9798 75.5906ZM85.8145 79.9608V75.307H86.1384L86.1722 75.5097C86.7182 75.3815 87.4734 75.2129 88.013 75.2129C88.4519 75.2129 88.8698 75.2797 89.2202 75.5633C89.6253 75.8943 89.7533 76.4265 89.7533 77.0061C89.7533 77.6142 89.5505 78.187 88.9977 78.5036C88.6135 78.7195 88.0942 78.8072 87.6288 78.8072C87.1498 78.8072 86.6915 78.7328 86.2125 78.5915V79.9608H85.8145Z" fill="#939598"/>
<path d="M92.7155 75.5768C91.5351 75.5768 91.0091 75.9481 91.0091 76.9867C91.0091 77.9914 91.5284 78.4436 92.7155 78.4436C93.8888 78.4436 94.4149 78.0791 94.4149 77.0405C94.4149 76.0358 93.8958 75.5768 92.7155 75.5768ZM94.2327 78.4436C93.8415 78.7263 93.3157 78.8075 92.7155 78.8075C92.1018 78.8075 91.5755 78.7198 91.1912 78.4436C90.7596 78.1402 90.584 77.6407 90.584 77.014C90.584 76.393 90.7596 75.8878 91.1912 75.5768C91.5755 75.3008 92.1018 75.2129 92.7155 75.2129C93.3222 75.2129 93.8415 75.3008 94.2327 75.5768C94.6714 75.8878 94.8397 76.393 94.8397 77.0064C94.8397 77.6342 94.6643 78.1402 94.2327 78.4436Z" fill="#939598"/>
<path d="M99.8191 78.7146L98.504 75.8893H98.4766L97.1821 78.7146H96.8247L95.4219 75.3086H95.8603L97.0271 78.168H97.0542L98.3216 75.3086H98.6859L99.9877 78.168H100.015L101.155 75.3086H101.579L100.177 78.7146H99.8191Z" fill="#939598"/>
<path d="M104.124 75.5701C103.031 75.5701 102.66 76.0555 102.593 76.7575H105.655C105.621 75.9819 105.223 75.5701 104.124 75.5701ZM104.111 78.8072C103.456 78.8072 103.031 78.7131 102.694 78.4295C102.296 78.0855 102.161 77.5868 102.161 77.0137C102.161 76.4674 102.344 75.8875 102.795 75.5568C103.173 75.2941 103.638 75.2129 104.124 75.2129C104.562 75.2129 105.068 75.26 105.486 75.5436C105.978 75.8737 106.073 76.4541 106.073 77.1146H102.579C102.593 77.8157 102.822 78.4368 104.144 78.4368C104.771 78.4368 105.358 78.3353 105.904 78.2409V78.598C105.338 78.6998 104.71 78.8072 104.111 78.8072Z" fill="#939598"/>
<path d="M107.215 78.7131V75.307H107.538L107.573 75.5097C108.294 75.3279 108.631 75.2129 109.265 75.2129H109.313V75.5906H109.218C108.685 75.5906 108.362 75.6645 107.613 75.8604V78.7131H107.215Z" fill="#939598"/>
<path d="M111.623 75.5701C110.53 75.5701 110.159 76.0555 110.092 76.7575H113.154C113.12 75.9819 112.722 75.5701 111.623 75.5701ZM111.61 78.8072C110.955 78.8072 110.53 78.7131 110.193 78.4295C109.795 78.0855 109.66 77.5868 109.66 77.0137C109.66 76.4674 109.843 75.8875 110.294 75.5568C110.672 75.2941 111.137 75.2129 111.623 75.2129C112.061 75.2129 112.567 75.26 112.985 75.5436C113.477 75.8737 113.572 76.4541 113.572 77.1146H110.079C110.092 77.8157 110.321 78.4368 111.643 78.4368C112.27 78.4368 112.857 78.3353 113.403 78.2409V78.598C112.837 78.6998 112.209 78.8072 111.61 78.8072Z" fill="#939598"/>
<path d="M117.931 75.8067C117.507 75.6513 117.021 75.5769 116.556 75.5769C115.376 75.5769 114.815 75.9755 114.815 77.0138C114.815 77.9979 115.274 78.4295 116.164 78.4295C116.697 78.4295 117.318 78.3013 117.931 78.1665V75.8067ZM118.006 78.7131L117.972 78.5104C117.426 78.6387 116.67 78.8076 116.131 78.8076C115.693 78.8076 115.274 78.7469 114.923 78.4569C114.519 78.1262 114.391 77.5934 114.391 77.0138C114.391 76.4068 114.593 75.8332 115.146 75.5231C115.53 75.3006 116.05 75.213 116.522 75.213C116.994 75.213 117.453 75.2942 117.931 75.4289V73.8711H118.329V78.7131H118.006Z" fill="#939598"/>
<path d="M124.164 75.591C123.631 75.591 123.011 75.7193 122.397 75.8608V78.2074C122.829 78.3692 123.308 78.4439 123.773 78.4439C124.953 78.4439 125.513 78.0459 125.513 77.0065C125.513 76.0294 125.054 75.591 124.164 75.591ZM125.183 78.504C124.798 78.7199 124.279 78.8076 123.813 78.8076C123.308 78.8076 122.802 78.7199 122.289 78.5513L122.269 78.7134H121.999V73.8711H122.397V75.496C122.943 75.3754 123.678 75.2133 124.198 75.2133C124.637 75.2133 125.054 75.2801 125.405 75.5637C125.81 75.8946 125.938 76.4269 125.938 77.0065C125.938 77.6145 125.735 78.1874 125.183 78.504Z" fill="#939598"/>
<path d="M126.465 80.0227V79.6523C126.661 79.672 126.843 79.6861 126.971 79.6861C127.464 79.6861 127.76 79.544 128.037 78.9841L128.165 78.7146L126.385 75.3086H126.843L128.368 78.2489H128.394L129.844 75.3086H130.296L128.381 79.1329C128.03 79.8276 127.653 80.0565 126.958 80.0565C126.803 80.0565 126.634 80.0432 126.465 80.0227" fill="#939598"/>
<path d="M135.78 76.771H134.459V77.9652H135.787C136.697 77.9652 137.042 77.8634 137.042 77.3647C137.042 76.8313 136.57 76.771 135.78 76.771ZM135.538 74.8355H134.459V76.0491H135.544C136.441 76.0491 136.799 75.9417 136.799 75.4356C136.799 74.8966 136.347 74.8355 135.538 74.8355ZM137.588 78.39C137.102 78.7001 136.515 78.7134 135.443 78.7134H133.427V74.0938H135.396C136.32 74.0938 136.886 74.107 137.358 74.3906C137.696 74.593 137.83 74.9031 137.83 75.3076C137.83 75.7928 137.629 76.117 137.102 76.3329V76.3595C137.696 76.4951 138.08 76.7984 138.08 77.4524C138.08 77.8973 137.918 78.1874 137.588 78.39" fill="#939598"/>
<path d="M142.115 77.2835C141.716 77.2494 141.312 77.2297 140.887 77.2297C140.193 77.2297 139.949 77.3712 139.949 77.6878C139.949 77.9846 140.152 78.1467 140.684 78.1467C141.13 78.1467 141.662 78.0458 142.115 77.944V77.2835ZM142.317 78.7131L142.29 78.5107C141.71 78.6528 141.035 78.8075 140.442 78.8075C140.077 78.8075 139.687 78.7601 139.41 78.5578C139.154 78.3759 139.032 78.0791 139.032 77.7351C139.032 77.3503 139.201 76.9932 139.605 76.8113C139.963 76.6428 140.442 76.6295 140.88 76.6295C141.238 76.6295 141.716 76.6492 142.115 76.6766V76.6154C142.115 76.0829 141.764 75.9076 140.806 75.9076C140.435 75.9076 139.983 75.9273 139.551 75.9679V75.28C140.03 75.2403 140.57 75.2129 141.015 75.2129C141.608 75.2129 142.223 75.2603 142.6 75.5297C142.991 75.8066 143.065 76.1911 143.065 76.6963V78.7131L142.317 78.7131Z" fill="#939598"/>
<path d="M147.512 78.7131V76.831C147.512 76.2111 147.195 75.9884 146.628 75.9884C146.21 75.9884 145.684 76.0961 145.239 76.2044V78.7131H144.288V75.307H145.064L145.097 75.523C145.697 75.3682 146.365 75.2129 146.919 75.2129C147.336 75.2129 147.761 75.2732 148.085 75.5636C148.355 75.8066 148.456 76.1432 148.456 76.6292V78.7131H147.512Z" fill="#939598"/>
<path d="M151.144 78.8072C150.705 78.8072 150.226 78.7469 149.876 78.45C149.457 78.1126 149.336 77.5801 149.336 77.0061C149.336 76.4671 149.511 75.8802 150.031 75.5501C150.456 75.2732 150.981 75.2129 151.528 75.2129C151.919 75.2129 152.304 75.24 152.728 75.2797V76.0082C152.384 75.9751 151.973 75.9478 151.642 75.9478C150.738 75.9478 150.314 76.2314 150.314 77.0137C150.314 77.7489 150.631 78.0655 151.372 78.0655C151.804 78.0655 152.31 77.9846 152.803 77.8901V78.5913C152.269 78.6998 151.69 78.8072 151.144 78.8072" fill="#939598"/>
<path d="M155.611 75.9272C154.707 75.9272 154.309 76.2108 154.309 76.9864C154.309 77.7622 154.7 78.0929 155.611 78.0929C156.508 78.0929 156.899 77.8157 156.899 77.0402C156.899 76.2647 156.515 75.9272 155.611 75.9272ZM157.243 78.45C156.825 78.7328 156.278 78.8072 155.611 78.8072C154.93 78.8072 154.383 78.7263 153.972 78.45C153.5 78.1399 153.331 77.6274 153.331 77.0137C153.331 76.3994 153.5 75.8802 153.972 75.5701C154.383 75.2938 154.93 75.2129 155.611 75.2129C156.285 75.2129 156.825 75.2938 157.243 75.5701C157.715 75.8802 157.877 76.3994 157.877 77.0064C157.877 77.6207 157.708 78.1399 157.243 78.45Z" fill="#939598"/>
<path d="M163.367 78.8082C162.794 78.8082 162.173 78.7141 161.708 78.3295C161.155 77.8706 160.986 77.1627 160.986 76.4002C160.986 75.7196 161.202 74.9103 161.924 74.4384C162.483 74.0744 163.178 74 163.879 74C164.392 74 164.918 74.0338 165.491 74.0809V74.9103C164.999 74.8697 164.392 74.8359 163.92 74.8359C162.605 74.8359 162.045 75.3354 162.045 76.4002C162.045 77.4869 162.564 77.9724 163.536 77.9724C164.169 77.9724 164.877 77.8441 165.592 77.6953V78.5179C164.877 78.6602 164.129 78.8082 163.367 78.8082" fill="#939598"/>
<path d="M168.387 75.8198C167.598 75.8198 167.294 76.1034 167.234 76.6227H169.527C169.5 76.0696 169.176 75.8198 168.387 75.8198ZM168.245 78.8075C167.686 78.8075 167.18 78.7404 166.802 78.4295C166.398 78.0929 166.256 77.5868 166.256 77.0064C166.256 76.4871 166.425 75.9075 166.897 75.5701C167.315 75.2735 167.848 75.2129 168.387 75.2129C168.873 75.2129 169.446 75.2668 169.864 75.5568C170.411 75.9413 170.458 76.535 170.464 77.2361H167.227C167.247 77.7557 167.524 78.0929 168.482 78.0929C169.075 78.0929 169.736 78.0052 170.296 77.9175V78.5851C169.642 78.6933 168.927 78.8075 168.245 78.8075Z" fill="#939598"/>
<path d="M174.694 78.7131V76.831C174.694 76.2111 174.378 75.9884 173.811 75.9884C173.393 75.9884 172.867 76.0961 172.422 76.2044V78.7131H171.471V75.307H172.246L172.28 75.523C172.88 75.3682 173.548 75.2129 174.101 75.2129C174.519 75.2129 174.944 75.2732 175.268 75.5636C175.537 75.8066 175.639 76.1432 175.639 76.6292V78.7131H174.694Z" fill="#939598"/>
<path d="M178.345 78.8076C177.887 78.8076 177.469 78.6794 177.239 78.3222C177.071 78.0792 176.99 77.7493 176.99 77.2904V76.0153H176.302V75.3075H176.99L177.091 74.2754H177.934V75.3075H179.276V76.0153H177.934V77.1083C177.934 77.3713 177.954 77.5937 178.028 77.7558C178.129 77.985 178.352 78.0724 178.649 78.0724C178.871 78.0724 179.141 78.0386 179.33 78.0056V78.6861C179.02 78.7473 178.662 78.8076 178.345 78.8076" fill="#939598"/>
<path d="M180.204 78.7131V75.307H180.98L181.014 75.523C181.641 75.3476 182.106 75.2129 182.7 75.2129C182.727 75.2129 182.767 75.2129 182.821 75.2193V76.0289C182.713 76.0225 182.585 76.0225 182.49 76.0225C182.025 76.0225 181.674 76.0761 181.155 76.1979V78.713L180.204 78.7131Z" fill="#939598"/>
<path d="M186.278 77.2835C185.88 77.2494 185.475 77.2297 185.05 77.2297C184.356 77.2297 184.112 77.3712 184.112 77.6878C184.112 77.9846 184.315 78.1467 184.848 78.1467C185.293 78.1467 185.825 78.0458 186.278 77.944V77.2835ZM186.48 78.7131L186.453 78.5107C185.873 78.6528 185.199 78.8075 184.605 78.8075C184.241 78.8075 183.85 78.7601 183.573 78.5578C183.317 78.3759 183.195 78.0791 183.195 77.7351C183.195 77.3503 183.364 76.9932 183.769 76.8113C184.126 76.6428 184.605 76.6295 185.043 76.6295C185.401 76.6295 185.88 76.6492 186.278 76.6766V76.6154C186.278 76.0829 185.927 75.9076 184.969 75.9076C184.598 75.9076 184.146 75.9273 183.715 75.9679V75.28C184.193 75.2403 184.733 75.2129 185.179 75.2129C185.772 75.2129 186.386 75.2603 186.763 75.5297C187.154 75.8066 187.229 76.1911 187.229 76.6963V78.7131L186.48 78.7131Z" fill="#939598"/>
<path d="M188.452 73.8711H189.403V78.7131H188.452V73.8711Z" fill="#939598"/>
</g>
<defs>
<clipPath id="clip0_1408_16701">
<rect width="190" height="100" fill="white"/>
</clipPath>
</defs>
</svg>
