<svg width="158" height="32" viewBox="0 0 158 32" fill="none" xmlns="http://www.w3.org/2000/svg">
<g clip-path="url(#clip0_3203_23832)">
<path d="M152.71 30.7591C151.17 29.3701 148.795 29.496 147.406 31.0369C148.947 32.426 151.321 32.3 152.71 30.7591Z" fill="url(#paint0_linear_3203_23832)"/>
<path d="M147.406 31.0369C148.795 29.496 148.669 27.1217 147.128 25.7326C145.739 27.2735 145.865 29.6479 147.406 31.0369Z" fill="url(#paint1_linear_3203_23832)"/>
<path d="M155.418 26.3623C153.622 25.3252 151.325 25.94 150.288 27.7365C152.084 28.7737 154.381 28.1588 155.418 26.3623Z" fill="url(#paint2_linear_3203_23832)"/>
<path d="M150.288 27.7365C151.325 25.94 150.71 23.6435 148.914 22.6063C147.877 24.4028 148.491 26.6994 150.288 27.7365Z" fill="url(#paint3_linear_3203_23832)"/>
<path d="M157.155 21.4988C155.185 20.8579 153.066 21.9358 152.425 23.9101C154.396 24.551 156.515 23.4731 157.155 21.4988Z" fill="url(#paint4_linear_3203_23832)"/>
<path d="M152.422 23.9102C153.062 21.9396 151.984 19.8208 150.01 19.18C149.369 21.1506 150.447 23.2694 152.422 23.9102Z" fill="url(#paint5_linear_3203_23832)"/>
<path d="M157.841 16.3797C155.777 16.1611 153.929 17.6576 153.714 19.7208C155.777 19.9393 157.626 18.4429 157.841 16.3797Z" fill="url(#paint6_linear_3203_23832)"/>
<path d="M153.714 19.7208C153.933 17.6576 152.436 15.8092 150.373 15.5944C150.155 17.6576 151.651 19.5059 153.714 19.7208Z" fill="url(#paint7_linear_3203_23832)"/>
<path d="M157.448 11.231C155.385 11.4495 153.888 13.2942 154.107 15.3574C156.17 15.1388 157.667 13.2942 157.448 11.231Z" fill="url(#paint8_linear_3203_23832)"/>
<path d="M154.107 15.3574C153.888 13.2942 152.044 11.7977 149.98 12.0162C150.199 14.0795 152.044 15.5759 154.107 15.3574Z" fill="url(#paint9_linear_3203_23832)"/>
<path d="M155.992 6.27478C154.022 6.9156 152.94 9.03436 153.581 11.005C155.551 10.3641 156.633 8.24538 155.992 6.27478Z" fill="url(#paint10_linear_3203_23832)"/>
<path d="M153.585 11.005C152.944 9.03436 150.825 7.95275 148.854 8.59357C149.495 10.5642 151.614 11.6458 153.585 11.005Z" fill="url(#paint11_linear_3203_23832)"/>
<path d="M153.54 1.7298C151.744 2.76695 151.129 5.06352 152.166 6.86002C153.962 5.82286 154.577 3.5263 153.54 1.7298Z" fill="url(#paint12_linear_3203_23832)"/>
<path d="M152.166 6.85629C151.129 5.05979 148.832 4.4449 147.036 5.48206C148.073 7.27856 150.369 7.89345 152.166 6.85629Z" fill="url(#paint13_linear_3203_23832)"/>
<path d="M150.595 3.9449C150.703 1.87429 149.114 0.10742 147.043 0C146.936 2.07061 148.525 3.83748 150.595 3.9449Z" fill="url(#paint14_linear_3203_23832)"/>
<path d="M5.29327 30.7591C6.83419 29.3701 9.20854 29.496 10.5976 31.0369C9.05667 32.426 6.68232 32.3 5.29327 30.7591Z" fill="url(#paint15_linear_3203_23832)"/>
<path d="M10.5939 31.0369C9.20481 29.496 9.33075 27.1217 10.8717 25.7326C12.2607 27.2735 12.1348 29.6479 10.5939 31.0369Z" fill="url(#paint16_linear_3203_23832)"/>
<path d="M2.58194 26.3623C4.37844 25.3252 6.67501 25.94 7.71216 27.7365C5.91566 28.7737 3.6191 28.1588 2.58194 26.3623Z" fill="url(#paint17_linear_3203_23832)"/>
<path d="M7.7121 27.7365C6.67494 25.94 7.28983 23.6435 9.08633 22.6063C10.1235 24.4028 9.5086 26.6994 7.7121 27.7365Z" fill="url(#paint18_linear_3203_23832)"/>
<path d="M0.844757 21.4988C2.81536 20.8579 4.93412 21.9358 5.57493 23.9101C3.60434 24.551 1.48557 23.4731 0.844757 21.4988Z" fill="url(#paint19_linear_3203_23832)"/>
<path d="M5.57862 23.9102C4.93781 21.9396 6.01571 19.8208 7.99001 19.18C8.63083 21.1506 7.55292 23.2694 5.57862 23.9102Z" fill="url(#paint20_linear_3203_23832)"/>
<path d="M0.159424 16.3797C2.22263 16.1611 4.07099 17.6576 4.28583 19.7208C2.22263 19.9393 0.377968 18.4429 0.159424 16.3797Z" fill="url(#paint21_linear_3203_23832)"/>
<path d="M4.2859 19.7208C4.06736 17.6576 5.56383 15.8092 7.62703 15.5944C7.84557 17.6576 6.3491 19.5059 4.2859 19.7208Z" fill="url(#paint22_linear_3203_23832)"/>
<path d="M0.552108 11.231C2.61531 11.4495 4.11178 13.2942 3.89324 15.3574C1.83003 15.1388 0.333564 13.2942 0.552108 11.231Z" fill="url(#paint23_linear_3203_23832)"/>
<path d="M3.89322 15.3574C4.11176 13.2942 5.95642 11.7977 8.01962 12.0162C7.80108 14.0795 5.95642 15.5759 3.89322 15.3574Z" fill="url(#paint24_linear_3203_23832)"/>
<path d="M2.00778 6.27478C3.97838 6.9156 5.05999 9.03436 4.41917 11.005C2.44857 10.3641 1.36697 8.24538 2.00778 6.27478Z" fill="url(#paint25_linear_3203_23832)"/>
<path d="M4.41541 11.005C5.05622 9.03436 7.17498 7.95275 9.14558 8.59357C8.50477 10.5642 6.386 11.6458 4.41541 11.005Z" fill="url(#paint26_linear_3203_23832)"/>
<path d="M4.45996 1.7298C6.25647 2.76695 6.87135 5.06352 5.8342 6.86002C4.03769 5.82286 3.42281 3.5263 4.45996 1.7298Z" fill="url(#paint27_linear_3203_23832)"/>
<path d="M5.83429 6.85629C6.87145 5.05979 9.16801 4.4449 10.9645 5.48206C9.92736 7.27856 7.63079 7.89345 5.83429 6.85629Z" fill="url(#paint28_linear_3203_23832)"/>
<path d="M7.40462 3.9449C7.2972 1.87429 8.88627 0.10742 10.9569 0C11.0643 2.07061 9.47523 3.83748 7.40462 3.9449Z" fill="url(#paint29_linear_3203_23832)"/>
<path d="M70.2453 23.5212H67.5302C67.2672 23.5361 67.0079 23.462 66.793 23.3101C66.6078 23.1693 66.4634 22.9841 66.3745 22.7693L65.4818 20.1394H59.7293L58.8551 22.7693C58.7699 22.9767 58.6291 23.1582 58.4476 23.2916C58.2365 23.4509 57.9809 23.5323 57.7179 23.5212H54.988L60.8257 8.44171H64.4076L70.2453 23.5212ZM60.5553 17.7687H64.6891L63.2852 13.6275C63.1815 13.3645 63.0741 13.0534 62.9593 12.6941C62.837 12.3422 62.7222 11.9569 62.6037 11.5421C62.4963 11.9606 62.3851 12.3533 62.2703 12.6941C62.1555 13.0348 62.0443 13.3682 61.9443 13.6275L60.559 17.7687H60.5553Z" fill="url(#paint30_linear_3203_23832)"/>
<path d="M67.471 8.44542H70.4454C70.7121 8.43801 70.9788 8.50839 71.2047 8.65285C71.4048 8.7899 71.5455 8.99363 71.6011 9.22699L73.6717 17.0946C73.7347 17.3539 73.7976 17.6243 73.8606 17.9095C73.9236 18.1947 73.9828 18.4836 74.0458 18.8244C74.1569 18.2391 74.3088 17.6613 74.5014 17.0983L76.9165 9.19736C76.9943 8.98622 77.1314 8.80472 77.3129 8.67508C77.5277 8.5195 77.787 8.43801 78.0537 8.44542H79.0723C79.3353 8.4306 79.5946 8.50469 79.8094 8.65656C79.9946 8.79731 80.1428 8.98252 80.2354 9.19736L82.6579 17.0649C82.8505 17.602 83.0024 18.1502 83.1135 18.7096C83.1728 18.4095 83.2209 18.1354 83.2876 17.8428C83.3506 17.5502 83.4024 17.3094 83.4654 17.0649L85.536 9.19736C85.6175 8.97511 85.7731 8.7862 85.9805 8.66767C86.1954 8.5158 86.4584 8.43801 86.7214 8.44172H89.4291L84.7693 23.5212H81.6022L78.7686 14.1757C78.6649 13.8757 78.5686 13.5386 78.4685 13.1534C78.3722 13.5386 78.2722 13.8794 78.1685 14.1757L75.2941 23.5212H72.1382L67.4784 8.44172L67.471 8.44542Z" fill="url(#paint31_linear_3203_23832)"/>
<path d="M101.901 23.5212H99.1969C98.9339 23.5361 98.6746 23.462 98.4598 23.3101C98.2708 23.1693 98.1264 22.9841 98.0338 22.7693L97.1411 20.1394H91.3886L90.507 22.7693C90.4218 22.9767 90.281 23.1582 90.0995 23.2916C89.8884 23.4509 89.6328 23.5323 89.3698 23.5212H86.6399L92.4776 8.44171H96.0595L101.897 23.5212H101.901ZM92.2109 17.7687H96.3225L94.9408 13.6275C94.8371 13.3645 94.7297 13.0534 94.6149 12.6941C94.5 12.3422 94.3778 11.9569 94.263 11.5421C94.1481 11.9606 94.037 12.3533 93.9222 12.6941C93.8074 13.0348 93.7036 13.3682 93.5962 13.6275L92.2109 17.7687Z" fill="url(#paint32_linear_3203_23832)"/>
<path d="M106.594 17.9428V23.5212H103.09V8.4454H107.994C108.935 8.42688 109.872 8.53801 110.783 8.77878C111.469 8.96398 112.109 9.28254 112.669 9.71592C113.139 10.0974 113.506 10.5938 113.732 11.1531C113.954 11.7199 114.065 12.3236 114.058 12.9311C114.061 13.4015 113.995 13.872 113.861 14.3239C113.735 14.7535 113.539 15.1573 113.287 15.524C113.024 15.8981 112.702 16.2352 112.339 16.513C111.943 16.813 111.506 17.0538 111.039 17.2279C111.272 17.3464 111.491 17.4946 111.687 17.6724C111.895 17.8539 112.076 18.065 112.228 18.2984L115.436 23.5434H112.269C111.754 23.5842 111.265 23.3249 111.002 22.8804L108.502 18.5058C108.405 18.3391 108.268 18.1984 108.105 18.0984C107.913 17.9984 107.698 17.9539 107.483 17.965L106.586 17.9465L106.594 17.9428ZM106.594 15.5314H107.998C108.413 15.5388 108.824 15.4796 109.216 15.3462C109.524 15.2425 109.805 15.0721 110.039 14.8461C110.25 14.635 110.409 14.3794 110.505 14.0979C110.605 13.7979 110.654 13.483 110.65 13.1645C110.683 12.5755 110.446 12.0051 110.005 11.6124C109.424 11.1902 108.713 10.9864 107.998 11.0383H106.594V15.5314Z" fill="url(#paint33_linear_3203_23832)"/>
<path d="M129.975 15.9759C129.982 17.0094 129.786 18.0354 129.4 18.9948C129.037 19.8912 128.497 20.7061 127.808 21.3877C127.1 22.0729 126.263 22.61 125.341 22.9582C124.318 23.3509 123.233 23.5472 122.137 23.5324H116.288V8.44542H122.148C123.24 8.43061 124.329 8.62692 125.352 9.01956C126.27 9.36775 127.108 9.89744 127.819 10.579C128.508 11.2569 129.048 12.0681 129.411 12.9645C129.793 13.9238 129.986 14.9462 129.975 15.9796V15.9759ZM126.393 15.9759C126.4 15.2907 126.304 14.6091 126.1 13.9572C125.933 13.3978 125.648 12.8756 125.267 12.4348C124.904 12.0125 124.444 11.6828 123.926 11.468C123.359 11.242 122.755 11.1346 122.148 11.1531H119.807V20.832H122.148C122.759 20.8432 123.37 20.7283 123.937 20.4987C124.448 20.2838 124.904 19.9542 125.267 19.5319C125.648 19.0874 125.933 18.5688 126.1 18.0095C126.304 17.3539 126.404 16.6686 126.393 15.9796V15.9759Z" fill="url(#paint34_linear_3203_23832)"/>
<path d="M139.964 11.5087C139.879 11.6495 139.768 11.7754 139.638 11.8754C139.509 11.9643 139.353 12.0088 139.194 12.0014C139.012 11.994 138.838 11.9421 138.683 11.8532L138.061 11.5124C137.809 11.3791 137.546 11.268 137.272 11.1791C136.942 11.0753 136.597 11.0235 136.253 11.0309C135.731 10.9902 135.212 11.1383 134.793 11.4495C134.464 11.7384 134.286 12.1607 134.312 12.6014C134.305 12.8793 134.408 13.1534 134.601 13.3534C134.819 13.5719 135.079 13.746 135.36 13.872C135.712 14.0275 136.071 14.1609 136.442 14.2683C136.846 14.3905 137.257 14.5276 137.679 14.6758C138.101 14.8239 138.516 14.998 138.916 15.198C139.313 15.3944 139.676 15.6499 139.99 15.9611C140.316 16.2908 140.576 16.6797 140.75 17.1131C140.957 17.6243 141.057 18.1725 141.042 18.7244C141.046 19.3948 140.924 20.0579 140.679 20.6802C140.446 21.2765 140.087 21.821 139.627 22.2692C139.135 22.7434 138.546 23.1064 137.901 23.3397C137.164 23.6101 136.386 23.7398 135.601 23.725C135.119 23.725 134.642 23.6768 134.167 23.5805C133.686 23.4842 133.212 23.3471 132.752 23.173C132.308 22.9989 131.878 22.7915 131.471 22.547C131.093 22.3211 130.741 22.0507 130.423 21.7432L131.456 20.106C131.545 19.9875 131.656 19.8875 131.782 19.8134C131.915 19.7319 132.064 19.6912 132.219 19.6912C132.441 19.6986 132.66 19.7652 132.845 19.8875L133.564 20.3246C133.856 20.4987 134.16 20.6431 134.479 20.7617C134.871 20.8987 135.282 20.9654 135.697 20.958C136.223 20.9876 136.749 20.8394 137.183 20.5394C137.557 20.2023 137.749 19.7097 137.705 19.2096C137.72 18.8948 137.616 18.5873 137.416 18.3466C137.205 18.1058 136.946 17.9095 136.657 17.7724C136.308 17.6168 135.949 17.4872 135.582 17.3872C135.186 17.2798 134.771 17.1575 134.353 17.0205C133.93 16.8871 133.519 16.7204 133.123 16.5241C132.738 16.3315 132.386 16.0722 132.089 15.7611C131.76 15.4129 131.5 15.0054 131.326 14.5609C131.119 13.9905 131.023 13.3904 131.037 12.7829C131.037 11.6087 131.526 10.4901 132.382 9.69C132.852 9.2455 133.404 8.89732 134.008 8.66766C134.712 8.40467 135.46 8.27502 136.212 8.28984C136.664 8.28984 137.116 8.32318 137.564 8.39726C137.99 8.46393 138.409 8.57135 138.812 8.71952C139.194 8.85287 139.561 9.02326 139.913 9.22698C140.242 9.41219 140.553 9.63814 140.831 9.89373L139.964 11.5198V11.5087Z" fill="url(#paint35_linear_3203_23832)"/>
<path d="M26.4588 11.5087C26.3773 11.6495 26.2662 11.7754 26.1365 11.8754C26.0069 11.9643 25.8513 12.0088 25.692 12.0014C25.5105 11.994 25.3365 11.9421 25.1809 11.8532L24.5586 11.5124C24.303 11.3791 24.04 11.268 23.7659 11.1791C23.4399 11.0753 23.0955 11.0235 22.7547 11.0309C22.2324 10.9902 21.7101 11.1383 21.2878 11.4495C20.9619 11.7384 20.7841 12.1644 20.81 12.6014C20.8026 12.8756 20.9063 13.1385 21.0989 13.3386C21.3175 13.5571 21.5768 13.7312 21.8583 13.8571C22.2102 14.0127 22.5695 14.1461 22.9399 14.2535C23.3436 14.3757 23.7511 14.5128 24.1771 14.6609C24.5993 14.8054 25.0142 14.9795 25.4142 15.1795C25.8106 15.3758 26.1736 15.6314 26.4884 15.9426C26.8144 16.2722 27.0737 16.6612 27.2478 17.0946C27.4552 17.6057 27.5552 18.1539 27.5404 18.7059C27.5441 19.3763 27.4219 20.0393 27.1774 20.6616C26.944 21.258 26.5847 21.8025 26.1254 22.2507C25.6402 22.7174 25.066 23.0767 24.4363 23.3101C23.6992 23.5805 22.9214 23.7101 22.1361 23.6953C21.6545 23.6953 21.1767 23.6472 20.7026 23.5509C20.221 23.4546 19.7469 23.3175 19.2876 23.1434C18.8431 22.973 18.4134 22.7619 18.006 22.5174C17.6282 22.2915 17.2763 22.0211 16.9577 21.7136L17.9912 20.0764C18.0801 19.9579 18.1912 19.8615 18.3171 19.7875C18.4505 19.706 18.5986 19.6652 18.7542 19.6652C18.9765 19.6726 19.195 19.7393 19.3802 19.8615L20.0951 20.2986C20.3877 20.4727 20.6952 20.6172 21.0137 20.7357C21.4064 20.8728 21.8175 20.9432 22.2324 20.9357C22.7584 20.9654 23.2807 20.8172 23.7103 20.5172C24.0882 20.1838 24.2845 19.6912 24.24 19.1874C24.2511 18.8725 24.1511 18.5688 23.9511 18.3243C23.74 18.0836 23.4807 17.8872 23.1918 17.7502C22.8473 17.5983 22.4917 17.4761 22.1287 17.3835C21.7323 17.2761 21.3175 17.1538 20.8989 17.0168C20.4766 16.8834 20.0655 16.7167 19.6691 16.5204C19.2654 16.3315 18.8987 16.0759 18.5838 15.7611C18.2579 15.4129 17.9986 15.0054 17.8245 14.5609C17.6133 13.9868 17.5133 13.3793 17.5318 12.7681C17.5318 11.5939 18.0245 10.4753 18.8839 9.67518C19.3543 9.2381 19.9025 8.89361 20.5063 8.66766C21.21 8.40467 21.9583 8.27502 22.7102 8.28984C23.1621 8.28984 23.614 8.32318 24.0622 8.39726C24.4882 8.46393 24.9068 8.57135 25.3105 8.71952C25.692 8.85287 26.0588 9.02326 26.4107 9.22698C26.7366 9.41589 27.0366 9.63814 27.3145 9.89373L26.4625 11.5198L26.4588 11.5087Z" fill="white"/>
<path d="M28.7701 23.5213V8.44545H34.3189C35.2116 8.43063 36.1043 8.52694 36.9748 8.73437C37.6193 8.88995 38.2305 9.16776 38.7676 9.54928C39.2121 9.88266 39.5566 10.3272 39.7751 10.8383C39.9936 11.3717 40.1011 11.9459 40.09 12.5237C40.0974 12.8534 40.0529 13.183 39.9566 13.5016C39.8566 13.8201 39.7047 14.1202 39.501 14.3869C39.2787 14.6795 39.0083 14.9314 38.7009 15.1351C38.3416 15.3759 37.9564 15.5685 37.5489 15.7093C38.3823 15.8611 39.1528 16.2612 39.7529 16.8612C40.2418 17.4428 40.4974 18.1873 40.4678 18.9504C40.4752 19.569 40.3492 20.1801 40.0937 20.7432C39.8418 21.2988 39.4677 21.7951 39.0009 22.1878C38.4787 22.6212 37.8786 22.9471 37.2304 23.1472C36.4488 23.3879 35.6339 23.5065 34.8153 23.4916L28.7664 23.525L28.7701 23.5213ZM32.2668 14.7869H34.0893C34.4411 14.7869 34.7893 14.761 35.1375 14.7054C35.419 14.661 35.6931 14.561 35.9376 14.4128C36.1562 14.2721 36.3303 14.072 36.4377 13.8387C36.5636 13.5535 36.6192 13.2423 36.6118 12.9312C36.6192 12.6274 36.5747 12.3237 36.4747 12.0348C36.3932 11.8088 36.2488 11.6088 36.0599 11.4606C35.8524 11.3087 35.6154 11.205 35.3635 11.1569C35.0264 11.0939 34.6856 11.0606 34.3448 11.0643H32.2705V14.7906L32.2668 14.7869ZM32.2668 17.1279V20.8839H34.7338C35.1227 20.8987 35.5153 20.8395 35.8858 20.7098C36.145 20.6135 36.3784 20.458 36.571 20.2542C36.734 20.0727 36.8525 19.8579 36.9155 19.6208C36.9785 19.3875 37.0081 19.1467 37.0081 18.9059C37.0118 18.654 36.9748 18.3985 36.9007 18.1577C36.834 17.9354 36.7044 17.7354 36.5266 17.5835C36.3228 17.4169 36.0858 17.2946 35.8302 17.2317C35.4709 17.1391 35.1005 17.0946 34.7301 17.1057L32.2705 17.1242L32.2668 17.1279Z" fill="white"/>
<path d="M52.3802 19.6245C52.4654 19.6245 52.5543 19.6393 52.6321 19.6689C52.721 19.706 52.8025 19.7615 52.8692 19.8282L54.2545 21.2877C53.6544 22.0729 52.8618 22.6915 51.9543 23.0805C50.9282 23.5064 49.8207 23.7102 48.7094 23.6842C47.6538 23.7027 46.6092 23.5064 45.6313 23.1101C44.7608 22.7397 43.9756 22.1878 43.331 21.4951C42.6865 20.7876 42.1939 19.9542 41.8753 19.0504C41.5308 18.0651 41.3567 17.0242 41.3678 15.9796C41.3641 14.9202 41.5605 13.8683 41.942 12.8793C42.2754 11.9681 42.7976 11.1383 43.4644 10.4345C44.1385 9.74557 44.9497 9.20477 45.8461 8.84547C46.8166 8.45283 47.8538 8.26022 48.8983 8.27133C49.4354 8.27133 49.9688 8.31948 50.4985 8.41949C50.9801 8.5158 51.4505 8.65656 51.9024 8.84547C52.321 9.01586 52.7247 9.2307 53.0988 9.48258C53.4507 9.71964 53.7767 9.98634 54.0767 10.2864L52.8914 11.8606C52.8136 11.9569 52.7247 12.0458 52.6284 12.1236C52.4988 12.2051 52.3469 12.2459 52.1913 12.2385C52.0691 12.2385 51.9505 12.2125 51.8394 12.157L51.4875 11.9569L51.0801 11.7162C50.9134 11.6125 50.7356 11.5236 50.5504 11.4569C50.3207 11.368 50.08 11.3013 49.8355 11.2569C49.5206 11.1865 49.1984 11.1457 48.8761 11.142C48.3316 11.1346 47.7908 11.2457 47.287 11.4643C46.8055 11.6791 46.3832 11.9977 46.0462 12.4014C45.6757 12.8459 45.4016 13.3608 45.235 13.9127C45.0386 14.5758 44.9423 15.2647 44.9534 15.9537C44.9386 16.6612 45.0423 17.3687 45.2683 18.0428C45.4498 18.6022 45.7424 19.117 46.1239 19.5615C46.4721 19.9653 46.9055 20.2838 47.3945 20.4987C47.8834 20.7135 48.4131 20.8246 48.9465 20.8209C49.2354 20.8209 49.528 20.8061 49.8133 20.7765C50.0614 20.7431 50.3096 20.6913 50.5504 20.6209C50.7726 20.5468 50.9875 20.4468 51.1875 20.3283C51.406 20.1949 51.6098 20.0431 51.7987 19.869C51.8802 19.8023 51.9728 19.743 52.0691 19.6949C52.1617 19.6504 52.2654 19.6208 52.3691 19.6134L52.3802 19.6245Z" fill="white"/>
</g>
<defs>
<linearGradient id="paint0_linear_3203_23832" x1="150.058" y1="32.3371" x2="150.058" y2="-11.4902" gradientUnits="userSpaceOnUse">
<stop stop-color="#D28B0F"/>
<stop offset="0.14" stop-color="#D38E13"/>
<stop offset="0.3" stop-color="#D79722"/>
<stop offset="0.47" stop-color="#DEA739"/>
<stop offset="0.66" stop-color="#E7BC5B"/>
<stop offset="0.84" stop-color="#F3D885"/>
<stop offset="1" stop-color="#FFF3AE"/>
</linearGradient>
<linearGradient id="paint1_linear_3203_23832" x1="147.269" y1="-3.1307e-06" x2="147.269" y2="-11.4902" gradientUnits="userSpaceOnUse">
<stop stop-color="#D28B0F"/>
<stop offset="0.14" stop-color="#D38E13"/>
<stop offset="0.3" stop-color="#D79722"/>
<stop offset="0.47" stop-color="#DEA739"/>
<stop offset="0.66" stop-color="#E7BC5B"/>
<stop offset="0.84" stop-color="#F3D885"/>
<stop offset="1" stop-color="#FFF3AE"/>
</linearGradient>
<linearGradient id="paint2_linear_3203_23832" x1="152.855" y1="32.3371" x2="152.855" y2="-11.4902" gradientUnits="userSpaceOnUse">
<stop stop-color="#D28B0F"/>
<stop offset="0.14" stop-color="#D38E13"/>
<stop offset="0.3" stop-color="#D79722"/>
<stop offset="0.47" stop-color="#DEA739"/>
<stop offset="0.66" stop-color="#E7BC5B"/>
<stop offset="0.84" stop-color="#F3D885"/>
<stop offset="1" stop-color="#FFF3AE"/>
</linearGradient>
<linearGradient id="paint3_linear_3203_23832" x1="149.603" y1="32.3371" x2="149.603" y2="-11.4902" gradientUnits="userSpaceOnUse">
<stop stop-color="#D28B0F"/>
<stop offset="0.14" stop-color="#D38E13"/>
<stop offset="0.3" stop-color="#D79722"/>
<stop offset="0.47" stop-color="#DEA739"/>
<stop offset="0.66" stop-color="#E7BC5B"/>
<stop offset="0.84" stop-color="#F3D885"/>
<stop offset="1" stop-color="#FFF3AE"/>
</linearGradient>
<linearGradient id="paint4_linear_3203_23832" x1="154.788" y1="32.337" x2="154.788" y2="-11.4903" gradientUnits="userSpaceOnUse">
<stop stop-color="#D28B0F"/>
<stop offset="0.14" stop-color="#D38E13"/>
<stop offset="0.3" stop-color="#D79722"/>
<stop offset="0.47" stop-color="#DEA739"/>
<stop offset="0.66" stop-color="#E7BC5B"/>
<stop offset="0.84" stop-color="#F3D885"/>
<stop offset="1" stop-color="#FFF3AE"/>
</linearGradient>
<linearGradient id="paint5_linear_3203_23832" x1="151.218" y1="32.3371" x2="151.218" y2="-11.4902" gradientUnits="userSpaceOnUse">
<stop stop-color="#D28B0F"/>
<stop offset="0.14" stop-color="#D38E13"/>
<stop offset="0.3" stop-color="#D79722"/>
<stop offset="0.47" stop-color="#DEA739"/>
<stop offset="0.66" stop-color="#E7BC5B"/>
<stop offset="0.84" stop-color="#F3D885"/>
<stop offset="1" stop-color="#FFF3AE"/>
</linearGradient>
<linearGradient id="paint6_linear_3203_23832" x1="155.777" y1="32.3371" x2="155.777" y2="-11.4902" gradientUnits="userSpaceOnUse">
<stop stop-color="#D28B0F"/>
<stop offset="0.14" stop-color="#D38E13"/>
<stop offset="0.3" stop-color="#D79722"/>
<stop offset="0.47" stop-color="#DEA739"/>
<stop offset="0.66" stop-color="#E7BC5B"/>
<stop offset="0.84" stop-color="#F3D885"/>
<stop offset="1" stop-color="#FFF3AE"/>
</linearGradient>
<linearGradient id="paint7_linear_3203_23832" x1="152.044" y1="32.337" x2="152.044" y2="-11.4903" gradientUnits="userSpaceOnUse">
<stop stop-color="#D28B0F"/>
<stop offset="0.14" stop-color="#D38E13"/>
<stop offset="0.3" stop-color="#D79722"/>
<stop offset="0.47" stop-color="#DEA739"/>
<stop offset="0.66" stop-color="#E7BC5B"/>
<stop offset="0.84" stop-color="#F3D885"/>
<stop offset="1" stop-color="#FFF3AE"/>
</linearGradient>
<linearGradient id="paint8_linear_3203_23832" x1="155.777" y1="2.77817e-05" x2="155.777" y2="-11.4902" gradientUnits="userSpaceOnUse">
<stop stop-color="#D28B0F"/>
<stop offset="0.14" stop-color="#D38E13"/>
<stop offset="0.3" stop-color="#D79722"/>
<stop offset="0.47" stop-color="#DEA739"/>
<stop offset="0.66" stop-color="#E7BC5B"/>
<stop offset="0.84" stop-color="#F3D885"/>
<stop offset="1" stop-color="#FFF3AE"/>
</linearGradient>
<linearGradient id="paint9_linear_3203_23832" x1="152.044" y1="32.3371" x2="152.044" y2="-11.4902" gradientUnits="userSpaceOnUse">
<stop stop-color="#D28B0F"/>
<stop offset="0.14" stop-color="#D38E13"/>
<stop offset="0.3" stop-color="#D79722"/>
<stop offset="0.47" stop-color="#DEA739"/>
<stop offset="0.66" stop-color="#E7BC5B"/>
<stop offset="0.84" stop-color="#F3D885"/>
<stop offset="1" stop-color="#FFF3AE"/>
</linearGradient>
<linearGradient id="paint10_linear_3203_23832" x1="154.788" y1="32.3371" x2="154.788" y2="-11.4902" gradientUnits="userSpaceOnUse">
<stop stop-color="#D28B0F"/>
<stop offset="0.14" stop-color="#D38E13"/>
<stop offset="0.3" stop-color="#D79722"/>
<stop offset="0.47" stop-color="#DEA739"/>
<stop offset="0.66" stop-color="#E7BC5B"/>
<stop offset="0.84" stop-color="#F3D885"/>
<stop offset="1" stop-color="#FFF3AE"/>
</linearGradient>
<linearGradient id="paint11_linear_3203_23832" x1="151.218" y1="32.3371" x2="151.218" y2="-11.4902" gradientUnits="userSpaceOnUse">
<stop stop-color="#D28B0F"/>
<stop offset="0.14" stop-color="#D38E13"/>
<stop offset="0.3" stop-color="#D79722"/>
<stop offset="0.47" stop-color="#DEA739"/>
<stop offset="0.66" stop-color="#E7BC5B"/>
<stop offset="0.84" stop-color="#F3D885"/>
<stop offset="1" stop-color="#FFF3AE"/>
</linearGradient>
<linearGradient id="paint12_linear_3203_23832" x1="152.855" y1="32.337" x2="152.855" y2="-11.4903" gradientUnits="userSpaceOnUse">
<stop stop-color="#D28B0F"/>
<stop offset="0.14" stop-color="#D38E13"/>
<stop offset="0.3" stop-color="#D79722"/>
<stop offset="0.47" stop-color="#DEA739"/>
<stop offset="0.66" stop-color="#E7BC5B"/>
<stop offset="0.84" stop-color="#F3D885"/>
<stop offset="1" stop-color="#FFF3AE"/>
</linearGradient>
<linearGradient id="paint13_linear_3203_23832" x1="149.603" y1="32.337" x2="149.603" y2="-11.4903" gradientUnits="userSpaceOnUse">
<stop stop-color="#D28B0F"/>
<stop offset="0.14" stop-color="#D38E13"/>
<stop offset="0.3" stop-color="#D79722"/>
<stop offset="0.47" stop-color="#DEA739"/>
<stop offset="0.66" stop-color="#E7BC5B"/>
<stop offset="0.84" stop-color="#F3D885"/>
<stop offset="1" stop-color="#FFF3AE"/>
</linearGradient>
<linearGradient id="paint14_linear_3203_23832" x1="148.821" y1="32.3371" x2="148.821" y2="-11.4902" gradientUnits="userSpaceOnUse">
<stop stop-color="#D28B0F"/>
<stop offset="0.14" stop-color="#D38E13"/>
<stop offset="0.3" stop-color="#D79722"/>
<stop offset="0.47" stop-color="#DEA739"/>
<stop offset="0.66" stop-color="#E7BC5B"/>
<stop offset="0.84" stop-color="#F3D885"/>
<stop offset="1" stop-color="#FFF3AE"/>
</linearGradient>
<linearGradient id="paint15_linear_3203_23832" x1="7.94173" y1="32.3371" x2="7.94173" y2="-11.4902" gradientUnits="userSpaceOnUse">
<stop stop-color="#D28B0F"/>
<stop offset="0.14" stop-color="#D38E13"/>
<stop offset="0.3" stop-color="#D79722"/>
<stop offset="0.47" stop-color="#DEA739"/>
<stop offset="0.66" stop-color="#E7BC5B"/>
<stop offset="0.84" stop-color="#F3D885"/>
<stop offset="1" stop-color="#FFF3AE"/>
</linearGradient>
<linearGradient id="paint16_linear_3203_23832" x1="10.7346" y1="32.3371" x2="10.7346" y2="-11.4902" gradientUnits="userSpaceOnUse">
<stop stop-color="#D28B0F"/>
<stop offset="0.14" stop-color="#D38E13"/>
<stop offset="0.3" stop-color="#D79722"/>
<stop offset="0.47" stop-color="#DEA739"/>
<stop offset="0.66" stop-color="#E7BC5B"/>
<stop offset="0.84" stop-color="#F3D885"/>
<stop offset="1" stop-color="#FFF3AE"/>
</linearGradient>
<linearGradient id="paint17_linear_3203_23832" x1="5.1452" y1="32.3371" x2="5.1452" y2="-11.4902" gradientUnits="userSpaceOnUse">
<stop stop-color="#D28B0F"/>
<stop offset="0.14" stop-color="#D38E13"/>
<stop offset="0.3" stop-color="#D79722"/>
<stop offset="0.47" stop-color="#DEA739"/>
<stop offset="0.66" stop-color="#E7BC5B"/>
<stop offset="0.84" stop-color="#F3D885"/>
<stop offset="1" stop-color="#FFF3AE"/>
</linearGradient>
<linearGradient id="paint18_linear_3203_23832" x1="8.39736" y1="32.3371" x2="8.39736" y2="-11.4902" gradientUnits="userSpaceOnUse">
<stop stop-color="#D28B0F"/>
<stop offset="0.14" stop-color="#D38E13"/>
<stop offset="0.3" stop-color="#D79722"/>
<stop offset="0.47" stop-color="#DEA739"/>
<stop offset="0.66" stop-color="#E7BC5B"/>
<stop offset="0.84" stop-color="#F3D885"/>
<stop offset="1" stop-color="#FFF3AE"/>
</linearGradient>
<linearGradient id="paint19_linear_3203_23832" x1="3.2117" y1="32.337" x2="3.2117" y2="-11.4903" gradientUnits="userSpaceOnUse">
<stop stop-color="#D28B0F"/>
<stop offset="0.14" stop-color="#D38E13"/>
<stop offset="0.3" stop-color="#D79722"/>
<stop offset="0.47" stop-color="#DEA739"/>
<stop offset="0.66" stop-color="#E7BC5B"/>
<stop offset="0.84" stop-color="#F3D885"/>
<stop offset="1" stop-color="#FFF3AE"/>
</linearGradient>
<linearGradient id="paint20_linear_3203_23832" x1="6.78246" y1="32.3371" x2="6.78246" y2="-11.4902" gradientUnits="userSpaceOnUse">
<stop stop-color="#D28B0F"/>
<stop offset="0.14" stop-color="#D38E13"/>
<stop offset="0.3" stop-color="#D79722"/>
<stop offset="0.47" stop-color="#DEA739"/>
<stop offset="0.66" stop-color="#E7BC5B"/>
<stop offset="0.84" stop-color="#F3D885"/>
<stop offset="1" stop-color="#FFF3AE"/>
</linearGradient>
<linearGradient id="paint21_linear_3203_23832" x1="2.22263" y1="32.3371" x2="2.22263" y2="-11.4902" gradientUnits="userSpaceOnUse">
<stop stop-color="#D28B0F"/>
<stop offset="0.14" stop-color="#D38E13"/>
<stop offset="0.3" stop-color="#D79722"/>
<stop offset="0.47" stop-color="#DEA739"/>
<stop offset="0.66" stop-color="#E7BC5B"/>
<stop offset="0.84" stop-color="#F3D885"/>
<stop offset="1" stop-color="#FFF3AE"/>
</linearGradient>
<linearGradient id="paint22_linear_3203_23832" x1="5.95647" y1="32.337" x2="5.95647" y2="-11.4903" gradientUnits="userSpaceOnUse">
<stop stop-color="#D28B0F"/>
<stop offset="0.14" stop-color="#D38E13"/>
<stop offset="0.3" stop-color="#D79722"/>
<stop offset="0.47" stop-color="#DEA739"/>
<stop offset="0.66" stop-color="#E7BC5B"/>
<stop offset="0.84" stop-color="#F3D885"/>
<stop offset="1" stop-color="#FFF3AE"/>
</linearGradient>
<linearGradient id="paint23_linear_3203_23832" x1="2.22267" y1="32.3371" x2="2.22267" y2="-11.4902" gradientUnits="userSpaceOnUse">
<stop stop-color="#D28B0F"/>
<stop offset="0.14" stop-color="#D38E13"/>
<stop offset="0.3" stop-color="#D79722"/>
<stop offset="0.47" stop-color="#DEA739"/>
<stop offset="0.66" stop-color="#E7BC5B"/>
<stop offset="0.84" stop-color="#F3D885"/>
<stop offset="1" stop-color="#FFF3AE"/>
</linearGradient>
<linearGradient id="paint24_linear_3203_23832" x1="5.95642" y1="32.3371" x2="5.95642" y2="-11.4902" gradientUnits="userSpaceOnUse">
<stop stop-color="#D28B0F"/>
<stop offset="0.14" stop-color="#D38E13"/>
<stop offset="0.3" stop-color="#D79722"/>
<stop offset="0.47" stop-color="#DEA739"/>
<stop offset="0.66" stop-color="#E7BC5B"/>
<stop offset="0.84" stop-color="#F3D885"/>
<stop offset="1" stop-color="#FFF3AE"/>
</linearGradient>
<linearGradient id="paint25_linear_3203_23832" x1="3.21163" y1="32.3371" x2="3.21163" y2="-11.4902" gradientUnits="userSpaceOnUse">
<stop stop-color="#D28B0F"/>
<stop offset="0.14" stop-color="#D38E13"/>
<stop offset="0.3" stop-color="#D79722"/>
<stop offset="0.47" stop-color="#DEA739"/>
<stop offset="0.66" stop-color="#E7BC5B"/>
<stop offset="0.84" stop-color="#F3D885"/>
<stop offset="1" stop-color="#FFF3AE"/>
</linearGradient>
<linearGradient id="paint26_linear_3203_23832" x1="6.78235" y1="32.3371" x2="6.78235" y2="-11.4902" gradientUnits="userSpaceOnUse">
<stop stop-color="#D28B0F"/>
<stop offset="0.14" stop-color="#D38E13"/>
<stop offset="0.3" stop-color="#D79722"/>
<stop offset="0.47" stop-color="#DEA739"/>
<stop offset="0.66" stop-color="#E7BC5B"/>
<stop offset="0.84" stop-color="#F3D885"/>
<stop offset="1" stop-color="#FFF3AE"/>
</linearGradient>
<linearGradient id="paint27_linear_3203_23832" x1="5.14523" y1="32.337" x2="5.14523" y2="-11.4903" gradientUnits="userSpaceOnUse">
<stop stop-color="#D28B0F"/>
<stop offset="0.14" stop-color="#D38E13"/>
<stop offset="0.3" stop-color="#D79722"/>
<stop offset="0.47" stop-color="#DEA739"/>
<stop offset="0.66" stop-color="#E7BC5B"/>
<stop offset="0.84" stop-color="#F3D885"/>
<stop offset="1" stop-color="#FFF3AE"/>
</linearGradient>
<linearGradient id="paint28_linear_3203_23832" x1="8.39755" y1="32.337" x2="8.39755" y2="-11.4903" gradientUnits="userSpaceOnUse">
<stop stop-color="#D28B0F"/>
<stop offset="0.14" stop-color="#D38E13"/>
<stop offset="0.3" stop-color="#D79722"/>
<stop offset="0.47" stop-color="#DEA739"/>
<stop offset="0.66" stop-color="#E7BC5B"/>
<stop offset="0.84" stop-color="#F3D885"/>
<stop offset="1" stop-color="#FFF3AE"/>
</linearGradient>
<linearGradient id="paint29_linear_3203_23832" x1="9.1826" y1="32.3371" x2="9.1826" y2="-11.4902" gradientUnits="userSpaceOnUse">
<stop stop-color="#D28B0F"/>
<stop offset="0.14" stop-color="#D38E13"/>
<stop offset="0.3" stop-color="#D79722"/>
<stop offset="0.47" stop-color="#DEA739"/>
<stop offset="0.66" stop-color="#E7BC5B"/>
<stop offset="0.84" stop-color="#F3D885"/>
<stop offset="1" stop-color="#FFF3AE"/>
</linearGradient>
<linearGradient id="paint30_linear_3203_23832" x1="62.6185" y1="32.3371" x2="62.6185" y2="-11.4902" gradientUnits="userSpaceOnUse">
<stop stop-color="#D28B0F"/>
<stop offset="0.14" stop-color="#D38E13"/>
<stop offset="0.3" stop-color="#D79722"/>
<stop offset="0.47" stop-color="#DEA739"/>
<stop offset="0.66" stop-color="#E7BC5B"/>
<stop offset="0.84" stop-color="#F3D885"/>
<stop offset="1" stop-color="#FFF3AE"/>
</linearGradient>
<linearGradient id="paint31_linear_3203_23832" x1="78.4463" y1="32.3371" x2="78.4463" y2="-11.4902" gradientUnits="userSpaceOnUse">
<stop stop-color="#D28B0F"/>
<stop offset="0.14" stop-color="#D38E13"/>
<stop offset="0.3" stop-color="#D79722"/>
<stop offset="0.47" stop-color="#DEA739"/>
<stop offset="0.66" stop-color="#E7BC5B"/>
<stop offset="0.84" stop-color="#F3D885"/>
<stop offset="1" stop-color="#FFF3AE"/>
</linearGradient>
<linearGradient id="paint32_linear_3203_23832" x1="94.2704" y1="32.3371" x2="94.2704" y2="-11.4902" gradientUnits="userSpaceOnUse">
<stop stop-color="#D28B0F"/>
<stop offset="0.14" stop-color="#D38E13"/>
<stop offset="0.3" stop-color="#D79722"/>
<stop offset="0.47" stop-color="#DEA739"/>
<stop offset="0.66" stop-color="#E7BC5B"/>
<stop offset="0.84" stop-color="#F3D885"/>
<stop offset="1" stop-color="#FFF3AE"/>
</linearGradient>
<linearGradient id="paint33_linear_3203_23832" x1="109.265" y1="32.3371" x2="109.265" y2="-11.4902" gradientUnits="userSpaceOnUse">
<stop stop-color="#D28B0F"/>
<stop offset="0.14" stop-color="#D38E13"/>
<stop offset="0.3" stop-color="#D79722"/>
<stop offset="0.47" stop-color="#DEA739"/>
<stop offset="0.66" stop-color="#E7BC5B"/>
<stop offset="0.84" stop-color="#F3D885"/>
<stop offset="1" stop-color="#FFF3AE"/>
</linearGradient>
<linearGradient id="paint34_linear_3203_23832" x1="123.133" y1="32.3371" x2="123.133" y2="-11.4902" gradientUnits="userSpaceOnUse">
<stop stop-color="#D28B0F"/>
<stop offset="0.14" stop-color="#D38E13"/>
<stop offset="0.3" stop-color="#D79722"/>
<stop offset="0.47" stop-color="#DEA739"/>
<stop offset="0.66" stop-color="#E7BC5B"/>
<stop offset="0.84" stop-color="#F3D885"/>
<stop offset="1" stop-color="#FFF3AE"/>
</linearGradient>
<linearGradient id="paint35_linear_3203_23832" x1="135.731" y1="32.3371" x2="135.731" y2="-11.4902" gradientUnits="userSpaceOnUse">
<stop stop-color="#D28B0F"/>
<stop offset="0.14" stop-color="#D38E13"/>
<stop offset="0.3" stop-color="#D79722"/>
<stop offset="0.47" stop-color="#DEA739"/>
<stop offset="0.66" stop-color="#E7BC5B"/>
<stop offset="0.84" stop-color="#F3D885"/>
<stop offset="1" stop-color="#FFF3AE"/>
</linearGradient>
<clipPath id="clip0_3203_23832">
<rect width="157.681" height="32" fill="white" transform="translate(0.159424)"/>
</clipPath>
</defs>
</svg>
